<svg xmlns="http://www.w3.org/2000/svg" viewBox="0 0 2200 2220" width="2200" height="2220">
<defs>
  <marker id="arrow" markerWidth="12" markerHeight="8" refX="10" refY="4" orient="auto">
    <polygon points="0 0, 12 4, 0 8" fill="#595959"/>
  </marker>
  <filter id="shadowSoft" x="-8%" y="-8%" width="120%" height="130%">
    <feDropShadow dx="0" dy="4" stdDeviation="6" flood-color="#0f172a" flood-opacity="0.10"/>
  </filter>
</defs>
<style>
  text { font-family: "Helvetica Neue", Helvetica, Arial, "PingFang SC", "Microsoft YaHei", sans-serif; }
</style>
<rect width="2200" height="2220" fill="#FFFFFF"/>
<text x="1100.0" y="50" text-anchor="middle" font-size="45" font-weight="700" fill="#1A1A1A">CenSoloLTR Pipeline v1.1.0</text>
<text x="1100.0" y="90" text-anchor="middle" font-size="24" font-style="italic" fill="#888888">Genome-Centered SoloLTR Annotation for Centromere Regions</text>
  <text x="60" y="194.0" font-size="27" font-weight="700" fill="#2F5496">Input</text>
  <rect x="208" y="110" width="1704" height="150" rx="16" fill="none" stroke="#dbe5f1" stroke-width="1.4" stroke-dasharray="8,7"/>
  <rect x="370" y="145.0" width="460" height="80" rx="12" fill="#2F5496" stroke="none" filter="url(#shadowSoft)"/>
  <text x="600.0" y="188.1" text-anchor="middle" font-size="24" font-weight="500" fill="#FFFFFF">
    <tspan x="600.0" dy="0">Genome FASTA</tspan>
  </text>
  <rect x="1070" y="145.0" width="460" height="80" rx="12" fill="#2F5496" stroke="none" filter="url(#shadowSoft)"/>
  <text x="1300.0" y="188.1" text-anchor="middle" font-size="24" font-weight="500" fill="#FFFFFF">
    <tspan x="1300.0" dy="0">Centromere BED</tspan>
  </text>
  <text x="60" y="426.5" font-size="27" font-weight="700" fill="#4472C4">Phase 0</text>
  <rect x="208" y="290" width="1704" height="255" rx="16" fill="none" stroke="#dbe5f1" stroke-width="1.4" stroke-dasharray="8,7"/>
  <rect x="258.5" y="340.0" width="295" height="155" rx="12" fill="#4472C4" stroke="none" filter="url(#shadowSoft)"/>
  <text x="406.0" y="405.6" text-anchor="middle" font-size="19" font-weight="500" fill="#FFFFFF">
    <tspan x="406.0" dy="0">[Step 0a]</tspan>
    <tspan x="406.0" dy="29">LTR_FINDER parallel</tspan>
  </text>
  <rect x="585.5" y="340.0" width="295" height="155" rx="12" fill="#4472C4" stroke="none" filter="url(#shadowSoft)"/>
  <text x="733.0" y="405.6" text-anchor="middle" font-size="19" font-weight="500" fill="#FFFFFF">
    <tspan x="733.0" dy="0">[Step 0b]</tspan>
    <tspan x="733.0" dy="29">LTR_HARVEST parallel</tspan>
  </text>
  <rect x="912.5" y="340.0" width="295" height="155" rx="12" fill="#4472C4" stroke="none" filter="url(#shadowSoft)"/>
  <text x="1060.0" y="405.6" text-anchor="middle" font-size="19" font-weight="500" fill="#FFFFFF">
    <tspan x="1060.0" dy="0">[Step 0c]</tspan>
    <tspan x="1060.0" dy="29">Merge SCN + LTR_retriever</tspan>
  </text>
  <rect x="1239.5" y="340.0" width="295" height="155" rx="12" fill="#4472C4" stroke="none" filter="url(#shadowSoft)"/>
  <text x="1387.0" y="405.6" text-anchor="middle" font-size="19" font-weight="500" fill="#FFFFFF">
    <tspan x="1387.0" dy="0">[Step 0d]</tspan>
    <tspan x="1387.0" dy="29">seqtk extract + TEsorter</tspan>
  </text>
  <rect x="1566.5" y="340.0" width="295" height="155" rx="12" fill="#4472C4" stroke="none" filter="url(#shadowSoft)"/>
  <text x="1714.0" y="405.6" text-anchor="middle" font-size="19" font-weight="500" fill="#FFFFFF">
    <tspan x="1714.0" dy="0">[Step 0e]</tspan>
    <tspan x="1714.0" dy="29">SoloLTR Detection</tspan>
  </text>
  <path d="M 553.5,417.5 L 585.5,417.5" fill="none" stroke="#595959" stroke-width="2.0" marker-end="url(#arrow)"/>
  <path d="M 880.5,417.5 L 912.5,417.5" fill="none" stroke="#595959" stroke-width="2.0" marker-end="url(#arrow)"/>
  <path d="M 1207.5,417.5 L 1239.5,417.5" fill="none" stroke="#595959" stroke-width="2.0" marker-end="url(#arrow)"/>
  <path d="M 1534.5,417.5 L 1566.5,417.5" fill="none" stroke="#595959" stroke-width="2.0" marker-end="url(#arrow)"/>
  <path d="M 600.0,225.0 L 600.0,282.5 L 406.0,282.5 L 406.0,340.0" fill="none" stroke="#595959" stroke-width="2.2" marker-end="url(#arrow)"/>
  <path d="M 1300.0,225.0 L 1300.0,282.5 L 1060.0,282.5 L 1060.0,340.0" fill="none" stroke="#595959" stroke-width="2.2" marker-end="url(#arrow)"/>
  <text x="2150" y="395.5" text-anchor="end" font-size="21" font-style="italic" fill="#595959">Intact LTRs</text>
  <text x="2150" y="424.5" text-anchor="end" font-size="21" font-style="italic" fill="#595959">+ SoloLTR list</text>
  <text x="60" y="734.0" font-size="27" font-weight="700" fill="#ED7D31">Phase 1</text>
  <rect x="208" y="570" width="1704" height="310" rx="16" fill="none" stroke="#dbe5f1" stroke-width="1.4" stroke-dasharray="8,7"/>
  <rect x="280" y="650.0" width="580" height="150" rx="12" fill="#ED7D31" stroke="none" filter="url(#shadowSoft)"/>
  <text x="570.0" y="709.6" text-anchor="middle" font-size="24" font-weight="500" fill="#FFFFFF">
    <tspan x="570.0" dy="0">[Step 1]</tspan>
    <tspan x="570.0" dy="37">Extract Complete LTR Sequences</tspan>
  </text>
  <rect x="980" y="600" width="700" height="100" rx="12" fill="#ED7D31" stroke="none" filter="url(#shadowSoft)"/>
  <text x="1330.0" y="638.1" text-anchor="middle" font-size="19" font-weight="500" fill="#FFFFFF">
    <tspan x="1330.0" dy="0">[Step 2]  CD-HIT Cluster (80% id.)</tspan>
    <tspan x="1330.0" dy="29">Non-redundant LTR Library (default)</tspan>
  </text>
  <rect x="980" y="720" width="700" height="100" rx="12" fill="#C49A00" stroke="none" filter="url(#shadowSoft)"/>
  <text x="1330.0" y="758.1" text-anchor="middle" font-size="19" font-weight="500" fill="#FFFFFF">
    <tspan x="1330.0" dy="0">[Fabaceae DB]  Pre-built NR LTR Library</tspan>
    <tspan x="1330.0" dy="29">(--fabaceae-db &lt;id&gt;, skip CD-HIT)</tspan>
  </text>
<text x="942" y="715.0" text-anchor="middle" font-size="26" font-weight="700" font-style="italic" fill="#C49A00">OR</text>
  <path d="M 406.0,495.0 L 406.0,572.5 L 570.0,572.5 L 570.0,650.0" fill="none" stroke="#595959" stroke-width="2.2" marker-end="url(#arrow)"/>
  <path d="M 860,703.0 L 980,650.0" fill="none" stroke="#595959" stroke-width="2.0" marker-end="url(#arrow)"/>
  <path d="M 860,747.0 L 980,770.0" fill="none" stroke="#595959" stroke-width="2.0" marker-end="url(#arrow)"/>
  <text x="2150" y="715.0" text-anchor="end" font-size="21" font-style="italic" fill="#595959">NR LTR Library</text>
  <text x="60" y="1011.5" font-size="27" font-weight="700" fill="#8B8B8B">Phase 2</text>
  <rect x="208" y="905" width="1704" height="195" rx="16" fill="none" stroke="#dbe5f1" stroke-width="1.4" stroke-dasharray="8,7"/>
  <rect x="350.0" y="955.0" width="1500" height="95" rx="12" fill="#8B8B8B" stroke="none" filter="url(#shadowSoft)"/>
  <text x="1100.0" y="1005.3" text-anchor="middle" font-size="22" font-weight="500" fill="#FFFFFF">
    <tspan x="1100.0" dy="0">[Step 3]  BLASTn Classify SoloLTRs against NR LTR Library  ->  Superfamily Assignment (best bitscore)</tspan>
  </text>
  <path d="M 1680,650.0 L 1735,650.0 L 1735,840 L 1100.0,840 L 1100.0,955.0" fill="none" stroke="#595959" stroke-width="2.2" marker-end="url(#arrow)"/>
  <text x="60" y="1261.5" font-size="27" font-weight="700" fill="#D4A017">Phase 3</text>
  <rect x="208" y="1125" width="1704" height="255" rx="16" fill="none" stroke="#dbe5f1" stroke-width="1.4" stroke-dasharray="8,7"/>
  <rect x="240" y="1175.0" width="790" height="155" rx="12" fill="#D4A017" stroke="none" filter="url(#shadowSoft)"/>
  <text x="635.0" y="1239.4" text-anchor="middle" font-size="21" font-weight="500" fill="#1A1A1A">
    <tspan x="635.0" dy="0">[Step 4]  Deep Annotation Rescue</tspan>
    <tspan x="635.0" dy="32">Relaxed BLAST for CEN/Peri-CEN Unclassified SoloLTRs</tspan>
  </text>
  <rect x="1130" y="1175.0" width="670" height="155" rx="12" fill="#D4A017" stroke="none" filter="url(#shadowSoft)"/>
  <text x="1465.0" y="1239.4" text-anchor="middle" font-size="21" font-weight="500" fill="#1A1A1A">
    <tspan x="1465.0" dy="0">[Step 5]  Extract CEN/Peri-CEN Annotation Table</tspan>
    <tspan x="1465.0" dy="32">(Region + Confidence columns)</tspan>
  </text>
  <path d="M 1100.0,1050.0 L 1100.0,1112.5 L 635.0,1112.5 L 635.0,1175.0" fill="none" stroke="#595959" stroke-width="2.2" marker-end="url(#arrow)"/>
  <path d="M 1030,1252.5 L 1130,1252.5" fill="none" stroke="#595959" stroke-width="2.0" marker-end="url(#arrow)"/>
  <text x="2150" y="1238.5" text-anchor="end" font-size="21" font-style="italic" fill="#595959">CEN/Peri-CEN</text>
  <text x="2150" y="1267.5" text-anchor="end" font-size="21" font-style="italic" fill="#595959">annotation table</text>
  <text x="60" y="1541.5" font-size="27" font-weight="700" fill="#5B9BD5">Phase 4</text>
  <rect x="208" y="1405" width="1704" height="255" rx="16" fill="none" stroke="#dbe5f1" stroke-width="1.4" stroke-dasharray="8,7"/>
  <rect x="240" y="1455.0" width="790" height="155" rx="12" fill="#5B9BD5" stroke="none" filter="url(#shadowSoft)"/>
  <text x="635.0" y="1519.4" text-anchor="middle" font-size="21" font-weight="500" fill="#1A1A1A">
    <tspan x="635.0" dy="0">[Step 6]  Extract CEN/Peri-CEN FASTA Sequences</tspan>
    <tspan x="635.0" dy="32">(sample|superfamily|region|id)</tspan>
  </text>
  <rect x="1130" y="1455.0" width="670" height="155" rx="12" fill="#5B9BD5" stroke="none" filter="url(#shadowSoft)"/>
  <text x="1465.0" y="1519.4" text-anchor="middle" font-size="21" font-weight="500" fill="#1A1A1A">
    <tspan x="1465.0" dy="0">[Step 7]  Family Statistics + Publication-ready Plots</tspan>
    <tspan x="1465.0" dy="32">(PDF / SVG / PNG)</tspan>
  </text>
  <path d="M 1465.0,1330.0 L 1465.0,1392.5 L 635.0,1392.5 L 635.0,1455.0" fill="none" stroke="#595959" stroke-width="2.2" marker-end="url(#arrow)"/>
  <path d="M 1030,1532.5 L 1130,1532.5" fill="none" stroke="#595959" stroke-width="2.0" marker-end="url(#arrow)"/>
  <text x="60" y="1821.5" font-size="27" font-weight="700" fill="#70AD47">Phase 5</text>
  <rect x="208" y="1685" width="1704" height="255" rx="16" fill="none" stroke="#dbe5f1" stroke-width="1.4" stroke-dasharray="8,7"/>
  <rect x="240" y="1735.0" width="790" height="155" rx="12" fill="#70AD47" stroke="none" filter="url(#shadowSoft)"/>
  <text x="635.0" y="1799.4" text-anchor="middle" font-size="21" font-weight="500" fill="#FFFFFF">
    <tspan x="635.0" dy="0">[Step 8]  Arm SoloLTR Deep Annotation Rescue</tspan>
    <tspan x="635.0" dy="32">BLAST against NR Library</tspan>
  </text>
  <rect x="1130" y="1735.0" width="670" height="155" rx="12" fill="#70AD47" stroke="none" filter="url(#shadowSoft)"/>
  <text x="1465.0" y="1799.4" text-anchor="middle" font-size="21" font-weight="500" fill="#FFFFFF">
    <tspan x="1465.0" dy="0">[Step 9]  Extract Arm SoloLTR FASTA</tspan>
    <tspan x="1465.0" dy="32">(sample|superfamily|Arm|id)</tspan>
  </text>
  <path d="M 1465.0,1610.0 L 1465.0,1672.5 L 635.0,1672.5 L 635.0,1735.0" fill="none" stroke="#595959" stroke-width="2.2" marker-end="url(#arrow)"/>
  <path d="M 1030,1812.5 L 1130,1812.5" fill="none" stroke="#595959" stroke-width="2.0" marker-end="url(#arrow)"/>
  <text x="60" y="2029.0" font-size="27" font-weight="700" fill="#375623">Output</text>
  <rect x="380.0" y="1980" width="1440" height="70" rx="10" fill="#375623" stroke="none" filter="url(#shadowSoft)"/>
  <text x="1100.0" y="2017.9" text-anchor="middle" font-size="21" font-weight="500" fill="#FFFFFF">
    <tspan x="1100.0" dy="0">Final Outputs:  Classification Tables  |  CEN &amp; Arm FASTA  |  Family Composition Plots  |  Pipeline Log</tspan>
  </text>
  <path d="M 1465.0,1890.0 L 1465.0,1935.0 L 1100.0,1935.0 L 1100.0,1980" fill="none" stroke="#595959" stroke-width="2.2" marker-end="url(#arrow)"/>
<text x="2145" y="2202" text-anchor="end" font-size="18" font-style="italic" fill="#CCCCCC">CenSoloLTR v1.1.0</text>
</svg>